<svg width="18" height="18" viewBox="0 0 18 18" fill="none" xmlns="http://www.w3.org/2000/svg">
<path fill-rule="evenodd" clip-rule="evenodd" d="M4.707 6.48902C4.83594 6.36497 5.00884 6.29719 5.18773 6.30056C5.36661 6.30394 5.53684 6.3782 5.661 6.50702L9 10.0512L12.339 6.50702C12.3997 6.44011 12.4732 6.38606 12.5552 6.34808C12.6371 6.3101 12.7259 6.28896 12.8162 6.28591C12.9065 6.28286 12.9964 6.29796 13.0808 6.33032C13.1651 6.36268 13.2421 6.41165 13.3072 6.47431C13.3722 6.53697 13.4241 6.61205 13.4596 6.69511C13.4951 6.77817 13.5136 6.86752 13.514 6.95785C13.5143 7.04819 13.4965 7.13768 13.4617 7.22101C13.4268 7.30435 13.3756 7.37985 13.311 7.44302L9.486 11.493C9.42304 11.5583 9.34755 11.6103 9.26404 11.6458C9.18054 11.6813 9.09074 11.6996 9 11.6996C8.90927 11.6996 8.81947 11.6813 8.73596 11.6458C8.65246 11.6103 8.57697 11.5583 8.514 11.493L4.689 7.44302C4.56496 7.31409 4.49717 7.14118 4.50055 6.96229C4.50392 6.78341 4.57818 6.61318 4.707 6.48902Z" fill="black"/>
</svg>
